<?xml version="1.0" encoding="UTF-8" standalone="no"?>
<svg xmlns:xlink="http://www.w3.org/1999/xlink" height="88.55px" width="116.9px" xmlns="http://www.w3.org/2000/svg">
  <g transform="matrix(1.0, 0.0, 0.0, 1.0, 58.45, 44.25)">
    <path d="M-36.0 44.3 L-51.65 7.0 -57.5 9.9 -58.45 8.35 -48.6 2.95 -34.65 35.8 -18.2 -44.25 -16.05 -44.25 -34.05 44.3 -36.0 44.3" fill="#000000" fill-rule="evenodd" stroke="none"/>
    <path d="M-36.0 44.3 L-51.65 7.0" fill="none" stroke="#000000" stroke-linecap="round" stroke-linejoin="round" stroke-width="0.05"/>
    <path d="M-57.5 9.9 L-58.45 8.35 -48.6 2.95" fill="none" stroke="#000000" stroke-linecap="round" stroke-linejoin="round" stroke-width="0.05"/>
    <path d="M-34.65 35.8 L-18.2 -44.25 -16.25 -44.25" fill="none" stroke="#000000" stroke-linecap="round" stroke-linejoin="round" stroke-width="0.05"/>
    <path d="M58.45 -41.15 L-17.4 -41.15 -17.4 -44.25 58.45 -44.25 58.45 -41.15" fill="#000000" fill-rule="evenodd" stroke="none"/>
    <path d="M-17.4 -41.35 L-17.4 -44.25 58.25 -44.25" fill="none" stroke="#000000" stroke-linecap="round" stroke-linejoin="round" stroke-width="0.05"/>
  </g>
</svg>
