<?xml version="1.0" encoding="UTF-8" standalone="no"?>
<svg xmlns:xlink="http://www.w3.org/1999/xlink" height="24.0px" width="24.0px" xmlns="http://www.w3.org/2000/svg">
  <g transform="matrix(1.0, 0.0, 0.0, 1.0, 0.75, 0.75)">
    <path d="M19.2 3.3 Q22.5 6.6 22.5 11.25 22.5 15.9 19.2 19.2 15.9 22.5 11.25 22.5 6.6 22.5 3.3 19.2 0.0 15.9 0.0 11.25 0.0 6.6 3.3 3.3 L3.6 3.05 Q6.8 0.0 11.25 0.0 15.9 0.0 19.2 3.3 M4.8 20.0 L10.75 11.6 17.8 20.0 10.75 11.6 4.8 20.0 M17.3 2.25 L10.75 11.6 3.6 3.05 10.75 11.6 17.3 2.25" fill="#ffcc66" fill-rule="evenodd" stroke="none"/>
    <path d="M19.2 3.3 Q22.5 6.6 22.5 11.25 22.5 15.9 19.2 19.2 15.9 22.5 11.25 22.5 6.6 22.5 3.3 19.2 0.0 15.9 0.0 11.25 0.0 6.6 3.3 3.3 L3.6 3.05 Q6.8 0.0 11.25 0.0 15.9 0.0 19.2 3.3 M3.6 3.05 L10.75 11.6 17.3 2.25 M17.8 20.0 L10.75 11.6 4.8 20.0" fill="none" stroke="#666699" stroke-linecap="round" stroke-linejoin="round" stroke-width="1.5"/>
  </g>
</svg>
